<svg xmlns="http://www.w3.org/2000/svg" viewBox="0 0 800 500" fill="none">
  <defs>
    <rect id="r" rx="8"/>
  </defs>
  <!-- Window chrome -->
  <rect width="800" height="500" rx="10" fill="#fffff8" stroke="#e0ddd1" stroke-width="1.5"/>
  <rect width="800" height="32" rx="10" fill="#f8f5eb"/>
  <rect y="24" width="800" height="8" fill="#f8f5eb"/>
  <circle cx="20" cy="16" r="5" fill="#ff5f57"/>
  <circle cx="38" cy="16" r="5" fill="#febc2e"/>
  <circle cx="56" cy="16" r="5" fill="#28c840"/>

  <!-- Sidebar -->
  <rect x="0" y="32" width="180" height="468" fill="#f8f5eb"/>
  <line x1="180" y1="32" x2="180" y2="500" stroke="#e0ddd1" stroke-width="1"/>

  <!-- Sidebar nav items -->
  <rect x="12" y="48" width="156" height="28" rx="4" fill="#a00000" opacity="0.12"/>
  <text x="40" y="67" font-family="Georgia, serif" font-size="12" fill="#a00000" font-weight="600">Today</text>
  <circle cx="28" cy="62" r="6" stroke="#a00000" stroke-width="1.2" fill="none"/>
  <path d="M25 62h6M28 59v6" stroke="#a00000" stroke-width="1"/>

  <text x="40" y="99" font-family="Georgia, serif" font-size="12" fill="#555">People</text>
  <text x="40" y="123" font-family="Georgia, serif" font-size="12" fill="#555">Notes</text>
  <text x="40" y="147" font-family="Georgia, serif" font-size="12" fill="#555">Issues</text>
  <text x="40" y="171" font-family="Georgia, serif" font-size="12" fill="#555">Writing</text>
  <text x="40" y="203" font-family="Georgia, serif" font-size="11" fill="#888">Email</text>
  <text x="40" y="225" font-family="Georgia, serif" font-size="11" fill="#888">Slack</text>
  <text x="40" y="247" font-family="Georgia, serif" font-size="11" fill="#888">Calendar</text>
  <text x="40" y="269" font-family="Georgia, serif" font-size="11" fill="#888">Drive</text>
  <text x="40" y="291" font-family="Georgia, serif" font-size="11" fill="#888">GitHub</text>
  <text x="40" y="313" font-family="Georgia, serif" font-size="11" fill="#888">Notion</text>
  <text x="40" y="335" font-family="Georgia, serif" font-size="11" fill="#888">Ramp</text>
  <text x="40" y="357" font-family="Georgia, serif" font-size="11" fill="#888">News</text>

  <!-- Main content area -->
  <!-- Header -->
  <text x="204" y="68" font-family="Georgia, serif" font-size="22" fill="#111" font-weight="400">Good morning</text>
  <text x="204" y="88" font-family="Georgia, serif" font-size="12" fill="#888" font-style="italic">Thursday, March 12</text>

  <!-- Weather card -->
  <rect x="204" y="104" width="160" height="64" rx="6" fill="#f8f5eb" stroke="#e0ddd1" stroke-width="1"/>
  <text x="220" y="124" font-family="Georgia, serif" font-size="11" fill="#888">Weather</text>
  <!-- Sun icon -->
  <circle cx="232" cy="148" r="10" fill="none" stroke="#e8a735" stroke-width="1.5"/>
  <circle cx="232" cy="148" r="5" fill="#e8a735"/>
  <text x="250" y="152" font-family="Georgia, serif" font-size="16" fill="#111">68°F</text>
  <text x="290" y="152" font-family="Georgia, serif" font-size="11" fill="#888">Sunny</text>

  <!-- Inbox pulse -->
  <rect x="376" y="104" width="200" height="64" rx="6" fill="#f8f5eb" stroke="#e0ddd1" stroke-width="1"/>
  <text x="392" y="124" font-family="Georgia, serif" font-size="11" fill="#888">Inbox Pulse</text>
  <rect x="392" y="134" width="40" height="6" rx="3" fill="#a00000" opacity="0.7"/>
  <text x="438" y="140" font-family="Georgia, serif" font-size="9" fill="#888">12 new</text>
  <rect x="392" y="146" width="28" height="6" rx="3" fill="#4a8" opacity="0.7"/>
  <text x="426" y="152" font-family="Georgia, serif" font-size="9" fill="#888">5 mentions</text>
  <rect x="392" y="158" width="18" height="6" rx="3" fill="#5a7" opacity="0.5"/>
  <text x="416" y="164" font-family="Georgia, serif" font-size="9" fill="#888">3 PRs</text>

  <!-- Calendar section -->
  <text x="204" y="200" font-family="Georgia, serif" font-size="14" fill="#111">Today's Calendar</text>
  <line x1="204" y1="208" x2="580" y2="208" stroke="#e0ddd1" stroke-width="1"/>

  <!-- Calendar items -->
  <rect x="204" y="216" width="370" height="32" rx="4" fill="#f8f5eb" stroke="#e0ddd1" stroke-width="0.5"/>
  <rect x="204" y="216" width="3" height="32" rx="1.5" fill="#4a90d9"/>
  <text x="220" y="230" font-family="Georgia, serif" font-size="11" fill="#888">9:00 AM</text>
  <text x="280" y="230" font-family="Georgia, serif" font-size="11" fill="#111">Team Standup</text>
  <rect x="204" y="220" width="2" height="24" rx="1" fill="#4a90d9"/>

  <rect x="204" y="254" width="370" height="32" rx="4" fill="#f8f5eb" stroke="#e0ddd1" stroke-width="0.5"/>
  <rect x="204" y="254" width="3" height="32" rx="1.5" fill="#e8a735"/>
  <text x="220" y="268" font-family="Georgia, serif" font-size="11" fill="#888">10:30 AM</text>
  <text x="280" y="268" font-family="Georgia, serif" font-size="11" fill="#111">Product Review</text>

  <rect x="204" y="292" width="370" height="32" rx="4" fill="#f8f5eb" stroke="#e0ddd1" stroke-width="0.5"/>
  <rect x="204" y="292" width="3" height="32" rx="1.5" fill="#a00000"/>
  <text x="220" y="306" font-family="Georgia, serif" font-size="11" fill="#888">2:00 PM</text>
  <text x="280" y="306" font-family="Georgia, serif" font-size="11" fill="#111">1:1 with Engineering Lead</text>

  <!-- Priorities section -->
  <text x="204" y="356" font-family="Georgia, serif" font-size="14" fill="#111">AI Priorities</text>
  <line x1="204" y1="364" x2="580" y2="364" stroke="#e0ddd1" stroke-width="1"/>

  <text x="216" y="384" font-family="Georgia, serif" font-size="11" fill="#a00000">1.</text>
  <text x="232" y="384" font-family="Georgia, serif" font-size="11" fill="#111">Review Q1 budget proposals before EOD</text>
  <rect x="204" y="372" width="6" height="6" rx="1" fill="#a00000" opacity="0.3"/>

  <text x="216" y="404" font-family="Georgia, serif" font-size="11" fill="#a00000">2.</text>
  <text x="232" y="404" font-family="Georgia, serif" font-size="11" fill="#111">Approve open pull requests on main repo</text>

  <text x="216" y="424" font-family="Georgia, serif" font-size="11" fill="#a00000">3.</text>
  <text x="232" y="424" font-family="Georgia, serif" font-size="11" fill="#111">Follow up on hiring pipeline updates</text>

  <text x="216" y="444" font-family="Georgia, serif" font-size="11" fill="#a00000">4.</text>
  <text x="232" y="444" font-family="Georgia, serif" font-size="11" fill="#111">Prep talking points for product review</text>

  <!-- Sparkline decoration -->
  <polyline points="598,104 612,98 626,108 640,94 654,100 668,88 682,96 696,82 710,90 724,78 738,86 752,72 766,80"
    stroke="#a00000" stroke-width="1.5" fill="none" opacity="0.3"/>
</svg>
